Coordinates
version=1
nRows=18
nColumns=38
inDegrees=no

Units are S.I. units (second, meters, Newtons, ...)
If the header above contains a line with 'inDegrees', this indicates whether rotational values are in degrees (yes) or radians (no).

endheader
time	pelvis_tilt	pelvis_list	pelvis_rotation	pelvis_tx	pelvis_ty	pelvis_tz	hip_flexion_r	hip_adduction_r	hip_rotation_r	knee_angle_r	ankle_angle_r	subtalar_angle_r	mtp_angle_r	hip_flexion_l	hip_adduction_l	hip_rotation_l	knee_angle_l	ankle_angle_l	subtalar_angle_l	mtp_angle_l	lumbar_extension	lumbar_bending	lumbar_rotation	arm_flex_r	arm_add_r	arm_rot_r	elbow_flex_r	pro_sup_r	wrist_flex_r	wrist_dev_r	arm_flex_l	arm_add_l	arm_rot_l	elbow_flex_l	pro_sup_l	wrist_flex_l	wrist_dev_l
9.2	-0.00474536	0.0817936	1.42877	0.528515	0.997738	-0.956256	-0.00143665	-0.119257	0.0225134	0.153084	0.0708381	0.0826314	0	-0.0265345	0.0350167	-0.189963	0.200184	0.149881	-0.108099	0	-0.220587	-0.0419318	0.153278	-0.0379163	-0.179377	-0.0774058	0.98194	1.15875	0	0.048846	-0.143763	-0.167714	-0.111977	1.4266	1.5708	0	0.048846
9.21	-0.00741944	0.0808858	1.42828	0.526342	0.997297	-0.956108	0.00997399	-0.123778	0.0275533	0.170305	0.0764074	0.0731957	0	-0.0248733	0.0404658	-0.187597	0.199461	0.149051	-0.11233	0	-0.21774	-0.0455	0.153431	-0.0383873	-0.180265	-0.0817689	0.981197	1.15696	0	0.048846	-0.146998	-0.168422	-0.112623	1.43108	1.5708	0	0.048846
9.22	-0.0103153	0.0782444	1.42728	0.524245	0.996625	-0.955887	0.0257695	-0.127754	0.0347288	0.191601	0.0820586	0.0596645	0	-0.0211686	0.0455757	-0.186947	0.19923	0.149137	-0.114376	0	-0.212898	-0.0492705	0.154041	-0.0391309	-0.181222	-0.0863045	0.980504	1.15566	0	0.048846	-0.150286	-0.169202	-0.112974	1.43596	1.5708	0	0.048846
9.23	-0.0137113	0.0734936	1.42564	0.522278	0.995655	-0.955565	0.0464369	-0.131116	0.0456984	0.216899	0.0875559	0.0415267	0	-0.0150316	0.0502279	-0.189056	0.199808	0.15297	-0.11076	0	-0.205616	-0.0533936	0.15495	-0.0401026	-0.182012	-0.0906083	0.980415	1.15465	0	0.048846	-0.153834	-0.1702	-0.113221	1.44199	1.5708	0	0.048846
9.24	-0.0196101	0.0700241	1.42388	0.520409	0.994798	-0.955093	0.0684587	-0.136569	0.0601505	0.245735	0.0924062	0.0209766	0	-0.00964937	0.0580046	-0.191436	0.19999	0.154275	-0.108753	0	-0.199774	-0.0605042	0.155321	-0.0409526	-0.182027	-0.0952859	0.98159	1.15363	0	0.048846	-0.156728	-0.17214	-0.112766	1.44898	1.5708	0	0.048846
9.25	-0.0269766	0.0679789	1.42175	0.518573	0.993957	-0.954529	0.0903577	-0.143352	0.0761974	0.276063	0.0955225	0.00152206	0	-0.0057773	0.0678814	-0.193169	0.199208	0.153921	-0.10934	0	-0.195464	-0.0694711	0.155548	-0.0418858	-0.181715	-0.100151	0.984345	1.15208	0	0.048846	-0.159267	-0.174619	-0.1116	1.45664	1.5708	0	0.048846
9.26	-0.0348867	0.0660406	1.4196	0.516737	0.992968	-0.953967	0.112889	-0.150417	0.0922095	0.30722	0.0979627	-0.0155931	0	-0.0021914	0.0782942	-0.193889	0.197968	0.154313	-0.110888	0	-0.191189	-0.079056	0.155394	-0.0428728	-0.181423	-0.104957	0.987866	1.15022	0	0.048846	-0.161935	-0.17757	-0.109911	1.465	1.5708	0	0.048846
9.27	-0.0412268	0.0645212	1.41806	0.514808	0.992053	-0.953251	0.136123	-0.155118	0.109014	0.339614	0.100203	-0.0314803	0	0.00106709	0.0871048	-0.192711	0.196728	0.154097	-0.113967	0	-0.188183	-0.0868292	0.154564	-0.0435636	-0.18172	-0.109538	0.992296	1.14887	0	0.048846	-0.163657	-0.180289	-0.108002	1.473	1.5708	0	0.048846
9.28	-0.0464709	0.0633137	1.41642	0.512925	0.991168	-0.952455	0.159736	-0.157679	0.127857	0.37216	0.102257	-0.0450131	0	0.00371707	0.0948763	-0.190708	0.195063	0.153457	-0.117908	0	-0.185876	-0.0933687	0.153655	-0.0441142	-0.18249	-0.113556	0.997815	1.1471	0	0.048846	-0.16464	-0.182915	-0.105542	1.48029	1.5708	0	0.048846
9.29	-0.0524904	0.0631431	1.41427	0.511248	0.990302	-0.951796	0.182223	-0.160698	0.146577	0.40289	0.103992	-0.0550048	0	0.00484693	0.103408	-0.191182	0.193018	0.153859	-0.11875	0	-0.18416	-0.100974	0.152705	-0.0448484	-0.182975	-0.116228	1.0032	1.13484	0	0.048846	-0.165523	-0.186042	-0.102502	1.48727	1.5708	0	0.048846
9.3	-0.0573442	0.065596	1.41248	0.509604	0.989787	-0.951062	0.201797	-0.162672	0.162094	0.429825	0.104379	-0.0582704	0	0.00278929	0.110866	-0.193874	0.190557	0.155522	-0.115275	0	-0.185674	-0.107488	0.151253	-0.0450663	-0.183519	-0.119164	1.0081	1.13251	0	0.048846	-0.165201	-0.188723	-0.0994076	1.49325	1.5708	0	0.048846
9.31	-0.0608116	0.0690737	1.41145	0.507963	0.989582	-0.950185	0.219616	-0.163076	0.174375	0.451091	0.104955	-0.050741	0	-0.000644761	0.116852	-0.196863	0.187805	0.155894	-0.110932	0	-0.188772	-0.112432	0.149196	-0.0444787	-0.184192	-0.122409	1.0123	1.13807	0	0.048846	-0.163502	-0.190961	-0.0956886	1.49697	1.5708	0	0.048846
9.32	-0.0644186	0.0719791	1.41142	0.506283	0.989442	-0.94933	0.236962	-0.164257	0.181786	0.466209	0.11479	-0.0252671	0	-0.00342467	0.122662	-0.199801	0.185369	0.154827	-0.10531	0	-0.191157	-0.117226	0.145894	-0.0439139	-0.184742	-0.123956	1.01567	1.12915	0	0.048846	-0.161134	-0.193115	-0.0917447	1.49928	1.5708	0	0.048846
9.33	-0.0664429	0.0740945	1.41232	0.504514	0.989388	-0.948479	0.253761	-0.163887	0.18449	0.474514	0.12737	-0.000927373	0	-0.00552941	0.126476	-0.201199	0.183093	0.154436	-0.100033	0	-0.193002	-0.119911	0.141648	-0.0435051	-0.185549	-0.125453	1.01824	1.12847	0	0.048846	-0.1579	-0.194719	-0.0881335	1.5005	1.5708	0	0.048846
9.34	-0.0669005	0.075161	1.41368	0.502706	0.989425	-0.947647	0.270455	-0.161845	0.183409	0.475896	0.135016	0.0163633	0	-0.00686317	0.128458	-0.201388	0.18029	0.154311	-0.0955994	0	-0.193903	-0.120595	0.137207	-0.0431944	-0.186486	-0.12728	1.02031	1.12829	0	0.048846	-0.153833	-0.195505	-0.0846703	1.49977	1.5708	0	0.048846
9.35	-0.0671328	0.0757447	1.415	0.500955	0.989577	-0.946806	0.287206	-0.159648	0.180065	0.471693	0.139906	0.0284667	0	-0.00798025	0.130105	-0.202612	0.176825	0.153024	-0.0895794	0	-0.194304	-0.120975	0.132838	-0.0429083	-0.187175	-0.129357	1.02162	1.12772	0	0.048846	-0.149115	-0.195784	-0.0813648	1.49812	1.5708	0	0.048846
9.36	-0.0669258	0.0762045	1.41595	0.499331	0.989912	-0.945924	0.304331	-0.15639	0.175645	0.463448	0.145943	0.0285141	0	-0.00951762	0.131148	-0.205632	0.172828	0.151821	-0.0809853	0	-0.194694	-0.120856	0.128864	-0.0427968	-0.187599	-0.131285	1.02255	1.12733	0	0.048846	-0.143753	-0.195882	-0.0778124	1.49572	1.5708	0	0.048846
9.37	-0.0669443	0.0761395	1.41806	0.4977	0.990384	-0.944867	0.322434	-0.153251	0.168851	0.452124	0.147656	0.017836	0	-0.0105078	0.13243	-0.207385	0.168518	0.149067	-0.0740359	0	-0.195245	-0.12082	0.123579	-0.0423353	-0.187576	-0.133298	1.02355	1.12935	0	0.048846	-0.13748	-0.195796	-0.0745751	1.49294	1.5708	0	0.048846
